<svg xmlns="http://www.w3.org/2000/svg" xmlns:xlink="http://www.w3.org/1999/xlink" viewBox="0 0 430 430" width="430" height="430" preserveAspectRatio="xMidYMid meet" style="width: 100%; height: 100%; transform: translate3d(0px, 0px, 0px); content-visibility: visible;"><defs><clipPath id="__lottie_element_16"><rect width="430" height="430" x="0" y="0"/></clipPath><clipPath id="__lottie_element_18"><path d="M0,0 L430,0 L430,430 L0,430z"/></clipPath><g id="__lottie_element_65"><g transform="matrix(0.996423065662384,0.08450473099946976,-0.08450473099946976,0.996423065662384,148.48599243164062,234.71144104003906)" opacity="1" style="display: block;"><g opacity="1" transform="matrix(1,0,0,1,0,0)"><path class="secondary" fill="rgb(44,165,141)" fill-opacity="1" d=" M-51.29999923706055,64.88800048828125 C-51.29999923706055,64.88800048828125 -22.719999313354492,-38.16299819946289 -22.719999313354492,-38.16299819946289 C-22.239999771118164,-39.62300109863281 -21.68000030517578,-41.03300094604492 -21.049999237060547,-42.393001556396484 C-20.3700008392334,-43.882999420166016 -19.59000015258789,-45.303001403808594 -18.739999771118164,-46.66299819946289 C-18.719999313354492,-46.69300079345703 -18.690000534057617,-46.731998443603516 -18.670000076293945,-46.762001037597656 C-12.869999885559082,-56.00199890136719 -3.4600000381469727,-62.26300048828125 7.019999980926514,-64.24299621582031 C13.260000228881836,-65.4229965209961 19.889999389648438,-65.09200286865234 26.360000610351562,-62.96200180053711 C33.63999938964844,-51.37200164794922 39.119998931884766,-43.60200119018555 43.06999969482422,-37.262001037597656 C47.02000045776367,-30.922000885009766 49.439998626708984,-26.02199935913086 50.599998474121094,-20.191999435424805 C52.279998779296875,-11.791999816894531 50.869998931884766,-3.062999963760376 47.06999969482422,4.626999855041504 C47.06999969482422,4.626999855041504 40.5099983215332,16.827999114990234 40.5099983215332,16.827999114990234 C40.5099983215332,16.827999114990234 21.8799991607666,51.45800018310547 21.8799991607666,51.45800018310547 C21.8799991607666,51.45800018310547 14.640000343322754,64.91799926757812 14.640000343322754,64.91799926757812"/></g></g></g><g id="__lottie_element_71"><g transform="matrix(1,0,0,1,169.16131591796875,334.74700927734375)" opacity="1" style="display: block;"><g opacity="1" transform="matrix(1,0,0,1,0,0)"><path class="primary" fill="rgb(249,201,192)" fill-opacity="1" d=" M42.94499969482422,5.520999908447266 C42.94499969482422,5.520999908447266 -61.840999603271484,5.520999908447266 -61.840999603271484,5.520999908447266 C-77.37699890136719,5.520999908447266 -92.36399841308594,20.426000595092773 -92.46399688720703,38.87799835205078 C-92.46399688720703,38.87799835205078 -92.46399688720703,38.87799835205078 -92.46399688720703,38.87799835205078 C-92.46399688720703,38.87799835205078 0.5910000205039978,38.8650016784668 0.5910000205039978,38.8650016784668 C0.5910000205039978,38.8650016784668 53.59600067138672,38.900001525878906 53.59600067138672,38.900001525878906 C75.06199645996094,38.900001525878906 92.46399688720703,21.49799919128418 92.46399688720703,0.03200000151991844 C92.46399688720703,0.03200000151991844 92.46399688720703,0.03200000151991844 92.46399688720703,0.03200000151991844 C92.46399688720703,-21.43400001525879 75.06199645996094,-38.834999084472656 53.59600067138672,-38.834999084472656 C53.59600067138672,-38.834999084472656 -88.64199829101562,-38.900001525878906 -88.64199829101562,-38.900001525878906"/></g></g></g><g id="__lottie_element_81"><g transform="matrix(0.9999790191650391,-0.006475135684013367,0.006475135684013367,0.9999790191650391,199.69813537597656,252.24729919433594)" opacity="1" style="display: block;"><g opacity="1" transform="matrix(1,0,0,1,0,0)"><path fill="rgb(255,0,0)" fill-opacity="1" d=" M-13.571691513061523,-31.11590003967285 C-13.571691513061523,-31.11590003967285 8.536470413208008,-5.2757978439331055 8.536470413208008,-5.2757978439331055 C8.536470413208008,-5.2757978439331055 63.381103515625,49.30891418457031 63.381103515625,49.30891418457031 C63.381103515625,49.30891418457031 51.21189880371094,76.8836669921875 24.7470703125,64.99637603759766 C24.7470703125,64.99637603759766 -22.64246940612793,17.8441219329834 -22.64246940612793,17.8441219329834 C-22.64246940612793,17.8441219329834 -56.13800048828125,-28.545000076293945 -56.13800048828125,-28.545000076293945 C-56.13800048828125,-28.545000076293945 -67.81500244140625,-52.60499954223633 -57.7599983215332,-66.45899963378906"/></g></g></g><mask id="__lottie_element_71_1" mask-type="alpha"><use xmlns:ns1="http://www.w3.org/1999/xlink" ns1:href="#__lottie_element_71"/></mask><mask id="__lottie_element_65_1" mask-type="alpha"><use xmlns:ns2="http://www.w3.org/1999/xlink" ns2:href="#__lottie_element_65"/></mask></defs><g clip-path="url(#__lottie_element_16)"><g clip-path="url(#__lottie_element_18)" transform="matrix(1,0,0,1,0,0)" opacity="1" style="display: block;"><g transform="matrix(0.9524546265602112,0.30468037724494934,-0.30468037724494934,0.9524546265602112,221.09671020507812,133.09341430664062)" opacity="1" style="display: block;"><g opacity="1" transform="matrix(1,0,0,1,0,0)"><path class="primary" fill="rgb(249,201,192)" fill-opacity="1" d=" M-17.288000106811523,29.299999237060547 C-17.288000106811523,29.299999237060547 3.049999952316284,39.268001556396484 3.049999952316284,39.268001556396484 C6.328999996185303,40.72800064086914 10.199000358581543,39.71200180053711 12.289999961853027,36.79499816894531 C15.515999794006348,32.292999267578125 19.687000274658203,24.400999069213867 23.732999801635742,14.923999786376953 C44.6879997253418,-33.20100021362305 7.357999801635742,-38.834999084472656 7.357999801635742,-38.834999084472656 C7.357999801635742,-38.834999084472656 -16.823999404907227,-46.17399978637695 -25.268999099731445,-22.85099983215332 C-39.7140007019043,17.04400062561035 -17.288000106811523,29.299999237060547 -17.288000106811523,29.299999237060547z"/></g></g><g transform="matrix(0.9524546265602112,0.30468037724494934,-0.30468037724494934,0.9524546265602112,217.45303344726562,126.91133880615234)" opacity="0.5" style="mix-blend-mode: multiply; display: block;"><g opacity="1" transform="matrix(1,0,0,1,0,0)" style="mix-blend-mode: multiply;"><path class="primary" fill="rgb(249,201,192)" fill-opacity="1" d=" M-15.550999641418457,-15.437999725341797 C-7.105999946594238,-38.76100158691406 17.075000762939453,-31.42300033569336 17.075000762939453,-31.42300033569336 C17.075000762939453,-31.42300033569336 20.540000915527344,-30.898000717163086 24.764999389648438,-28.81100082397461 C18.860000610351562,-33.12900161743164 12.711999893188477,-34.05799865722656 12.711999893188477,-34.05799865722656 C12.711999893188477,-34.05799865722656 -11.470000267028809,-41.395999908447266 -19.915000915527344,-18.072999954223633 C-34.36000061035156,21.82200050354004 -11.934000015258789,34.077999114990234 -11.934000015258789,34.077999114990234 C-11.934000015258789,34.077999114990234 -9.741000175476074,35.152000427246094 -9.741000175476074,35.152000427246094 C-14.991999626159668,30.788000106811523 -27.145000457763672,16.58300018310547 -15.550999641418457,-15.437999725341797z"/></g></g><g transform="matrix(0.9524546265602112,0.30468037724494934,-0.30468037724494934,0.9524546265602112,205.55148315429688,88.97549438476562)" opacity="1" style="display: block;"><g opacity="1" transform="matrix(1,0,0,1,0,0)"><path class="tertiary" fill="rgb(255,199,56)" fill-opacity="1" d=" M20.152999877929688,-1.8530000448226929 C19.506000518798828,-9.696000099182129 14.293999671936035,-16.573999404907227 6.3480000495910645,-19.18600082397461 C-4.244999885559082,-22.66900062561035 -15.654000282287598,-16.905000686645508 -19.136999130249023,-6.311999797821045 C-22.6200008392334,4.281000137329102 -16.856000900268555,15.6899995803833 -6.263000011444092,19.17300033569336 C-3.73799991607666,20.003000259399414 -1.4040000438690186,20.32200050354004 1.0959999561309814,20.160999298095703"/></g></g><g transform="matrix(0.9524546265602112,0.30468037724494934,-0.30468037724494934,0.9524546265602112,196.71446228027344,86.13601684570312)" opacity="0.5" style="mix-blend-mode: multiply; display: block;"><g opacity="1" transform="matrix(1,0,0,1,0,0)" style="mix-blend-mode: multiply;"><path class="tertiary" fill="rgb(255,199,56)" fill-opacity="1" d=" M6.336999893188477,19.160999298095703 C-4.25600004196167,15.678999900817871 -10.020000457763672,4.26800012588501 -6.5370001792907715,-6.323999881744385 C-3.937999963760376,-14.229000091552734 3.0759999752044678,-19.43899917602539 10.869999885559082,-20.1299991607666 C1.8140000104904175,-20.832000732421875 -6.890999794006348,-15.338000297546387 -9.854999542236328,-6.323999881744385 C-13.336999893188477,4.26800012588501 -7.573999881744385,15.678999900817871 3.0190000534057617,19.160999298095703 C5.544000148773193,19.992000579833984 7.879000186920166,20.309999465942383 10.378999710083008,20.14900016784668 C10.378999710083008,20.14900016784668 10.454000473022461,20.062999725341797 10.454000473022461,20.062999725341797 C9.100000381469727,19.913000106811523 7.748000144958496,19.625 6.336999893188477,19.160999298095703z"/></g></g><g transform="matrix(0.9524546265602112,0.30468037724494934,-0.30468037724494934,0.9524546265602112,226.51597595214844,115.59771728515625)" opacity="1" style="display: block;"><g opacity="1" transform="matrix(1,0,0,1,0,0)"><path class="tertiary" fill="rgb(255,199,56)" fill-opacity="1" d=" M-6.71999979019165,18.520000457763672 C-6.71999979019165,18.520000457763672 -2.9749999046325684,18.020000457763672 -2.9749999046325684,18.020000457763672 C5.568999767303467,-4.936999797821045 29.53499984741211,2.3269999027252197 29.53499984741211,2.3269999027252197 C29.53499984741211,2.3269999027252197 29.68400001525879,2.3510000705718994 29.93400001525879,2.4000000953674316 C27.11400032043457,-17.545000076293945 7.5269999504089355,-20.520000457763672 7.5269999504089355,-20.520000457763672 C7.5269999504089355,-20.520000457763672 -16.655000686645508,-27.858999252319336 -25.100000381469727,-4.535999774932861 C-28.926000595092773,6.03000020980835 -30.14900016784668,14.640000343322754 -29.90399932861328,21.614999771118164 C-29.90399932861328,21.614999771118164 -21.145999908447266,20.445999145507812 -21.145999908447266,20.445999145507812 C-21.479000091552734,19.326000213623047 -21.667999267578125,18.110000610351562 -21.667999267578125,16.834999084472656 C-21.667999267578125,11.355999946594238 -18.29599952697754,6.914000034332275 -14.13599967956543,6.914000034332275 C-9.97599983215332,6.914000034332275 -6.604000091552734,11.355999946594238 -6.604000091552734,16.834999084472656 C-6.604000091552734,17.40999984741211 -6.6479997634887695,17.97100067138672 -6.71999979019165,18.520000457763672z"/></g></g><g transform="matrix(0.996423065662384,0.08450473099946976,-0.08450473099946976,0.996423065662384,148.48599243164062,234.71144104003906)" opacity="1" style="display: block;"><g opacity="1" transform="matrix(1,0,0,1,0,0)"><path class="secondary" fill="rgb(44,165,141)" fill-opacity="1" d=" M-51.04999923706055,66.01300048828125 C-51.04999923706055,66.01300048828125 -22.719999313354492,-38.16299819946289 -22.719999313354492,-38.16299819946289 C-22.239999771118164,-39.62300109863281 -21.68000030517578,-41.03300094604492 -21.049999237060547,-42.393001556396484 C-20.3700008392334,-43.882999420166016 -19.59000015258789,-45.303001403808594 -18.739999771118164,-46.66299819946289 C-18.719999313354492,-46.69300079345703 -18.690000534057617,-46.731998443603516 -18.670000076293945,-46.762001037597656 C-12.869999885559082,-56.00199890136719 -3.4600000381469727,-62.26300048828125 7.019999980926514,-64.24299621582031 C13.260000228881836,-65.4229965209961 19.889999389648438,-65.09200286865234 26.360000610351562,-62.96200180053711 C33.63999938964844,-51.37200164794922 39.119998931884766,-43.60200119018555 43.06999969482422,-37.262001037597656 C47.02000045776367,-30.922000885009766 49.439998626708984,-26.02199935913086 50.599998474121094,-20.191999435424805 C52.279998779296875,-11.791999816894531 50.869998931884766,-3.062999963760376 47.06999969482422,4.626999855041504 C47.06999969482422,4.626999855041504 40.5099983215332,16.827999114990234 40.5099983215332,16.827999114990234 C40.5099983215332,16.827999114990234 21.8799991607666,51.45800018310547 21.8799991607666,51.45800018310547 C21.8799991607666,51.45800018310547 15.083999633789062,64.09200286865234 15.083999633789062,64.09200286865234 C15.083999633789062,64.09200286865234 12.640000343322754,70.7300033569336 12.640000343322754,70.7300033569336"/></g></g><g transform="matrix(1,0,0,1,319.0249938964844,337.5610046386719)" opacity="1" style="display: block;"><g opacity="1" transform="matrix(1,0,0,1,0,0)"><path class="primary" fill="rgb(249,201,192)" fill-opacity="1" d=" M-35.63199996948242,-9.927000045776367 C-35.63199996948242,-9.927000045776367 -36.073001861572266,22.391000747680664 -36.073001861572266,22.391000747680664 C-36.11600112915039,25.520999908447266 -33.59000015258789,28.117000579833984 -30.459999084472656,28.15999984741211 C-30.459999084472656,28.15999984741211 8.663999557495117,28.694000244140625 8.663999557495117,28.694000244140625 C23.51300048828125,28.89699935913086 35.82699966430664,16.913999557495117 36.029998779296875,2.065000057220459 C36.029998779296875,2.065000057220459 36.07099914550781,-0.9769999980926514 36.07099914550781,-0.9769999980926514 C36.27399826049805,-15.826000213623047 24.291000366210938,-28.139999389648438 9.442000389099121,-28.343000411987305 C9.442000389099121,-28.343000411987305 -16.344999313354492,-28.69499969482422 -16.344999313354492,-28.69499969482422 C-26.809999465942383,-28.83799934387207 -35.48899841308594,-20.392000198364258 -35.63199996948242,-9.927000045776367z"/></g></g><g transform="matrix(1,0,0,1,343.1300048828125,337.5610046386719)" opacity="1" style="display: block;"><g opacity="1" transform="matrix(1,0,0,1,0,0)"><path class="quaternary" fill="rgb(178,104,54)" fill-opacity="1" d=" M-12.718999862670898,-28.695999145507812 C-10.442000389099121,-28.395999908447266 -1.6920000314712524,-26.97100067138672 5.252999782562256,-19.222999572753906 C12.394000053405762,-11.256999969482422 12.704999923706055,-2.0969998836517334 12.718999862670898,0.14100000262260437 C12.718999862670898,0.14100000262260437 12.718999862670898,0.1420000046491623 12.718999862670898,0.1420000046491623 C12.718999862670898,14.428999900817871 2.23799991607666,26.357999801635742 -11.40999984741211,28.695999145507812 C-6.86299991607666,25.975000381469727 -3.180999994277954,22.48900032043457 -2.49399995803833,18.02199935913086 C-1.434000015258789,11.130999565124512 -8.520000457763672,8.684000015258789 -9.324000358581543,-0.8050000071525574 C-10.048999786376953,-9.359999656677246 -4.500999927520752,-12.711000442504883 -6.658999919891357,-20.1299991607666 C-7.860000133514404,-24.256999969482422 -10.687000274658203,-27.05699920654297 -12.718999862670898,-28.695999145507812z"/></g></g><g transform="matrix(1,0,0,1,294.7449951171875,337.614990234375)" opacity="0.5" style="mix-blend-mode: multiply; display: block;"><g opacity="1" transform="matrix(1,0,0,1,0,0)" style="mix-blend-mode: multiply;"><path class="primary" fill="rgb(249,201,192)" fill-opacity="1" d=" M-0.20499999821186066,28.42799949645996 C-3.3350000381469727,28.38599967956543 -5.861000061035156,25.790000915527344 -5.817999839782715,22.65999984741211 C-5.817999839782715,22.65999984741211 -5.376999855041504,-9.657999992370605 -5.376999855041504,-9.657999992370605 C-5.242000102996826,-19.54599952697754 2.5160000324249268,-27.621000289916992 12.199000358581543,-28.36199951171875 C12.199000358581543,-28.36199951171875 7.53000020980835,-28.426000595092773 7.53000020980835,-28.426000595092773 C-2.934999942779541,-28.569000244140625 -11.614999771118164,-20.12299919128418 -11.758000373840332,-9.657999992370605 C-11.758000373840332,-9.657999992370605 -12.199000358581543,22.65999984741211 -12.199000358581543,22.65999984741211 C-12.241999626159668,25.790000915527344 -9.71500015258789,28.38599967956543 -6.585000038146973,28.42799949645996 C-4.458000183105469,28.42799949645996 -2.3320000171661377,28.42799949645996 -0.20499999821186066,28.42799949645996z"/></g></g><g transform="matrix(1,0,0,1,169.16131591796875,334.74700927734375)" opacity="1" style="display: block;"><g opacity="1" transform="matrix(1,0,0,1,0,0)"><path class="primary" fill="rgb(249,201,192)" fill-opacity="1" d=" M42.94499969482422,5.520999908447266 C42.94499969482422,5.520999908447266 -61.840999603271484,5.520999908447266 -61.840999603271484,5.520999908447266 C-77.37699890136719,5.520999908447266 -92.36399841308594,20.426000595092773 -92.46399688720703,38.87799835205078 C-92.46399688720703,38.87799835205078 -92.46399688720703,38.87799835205078 -92.46399688720703,38.87799835205078 C-92.46399688720703,38.87799835205078 0.5910000205039978,38.8650016784668 0.5910000205039978,38.8650016784668 C0.5910000205039978,38.8650016784668 53.59600067138672,38.900001525878906 53.59600067138672,38.900001525878906 C75.06199645996094,38.900001525878906 92.46399688720703,21.49799919128418 92.46399688720703,0.03200000151991844 C92.46399688720703,0.03200000151991844 92.46399688720703,0.03200000151991844 92.46399688720703,0.03200000151991844 C92.46399688720703,-21.43400001525879 75.06199645996094,-38.834999084472656 53.59600067138672,-38.834999084472656 C53.59600067138672,-38.834999084472656 -88.64199829101562,-38.900001525878906 -88.64199829101562,-38.900001525878906"/></g></g><g transform="matrix(1,0,0,1,147.2023162841797,332.5010070800781)" opacity="1" style="display: block;"><g opacity="1" transform="matrix(1,0,0,1,0,0)"><path class="primary" fill="rgb(249,201,192)" fill-opacity="1" d=" M66.68099975585938,36.62099838256836 C66.68099975585938,36.62099838256836 -66.68099975585938,36.62099838256836 -66.68099975585938,36.62099838256836 C-66.68099975585938,36.62099838256836 -66.68099975585938,-36.62099838256836 -66.68099975585938,-36.62099838256836 C-66.68099975585938,-36.62099838256836 66.68099975585938,-36.62099838256836 66.68099975585938,-36.62099838256836 C66.68099975585938,-36.62099838256836 66.68099975585938,36.62099838256836 66.68099975585938,36.62099838256836z"/></g></g><g transform="matrix(1,0,0,1,145.9783172607422,351.22100830078125)" opacity="0.5" style="mix-blend-mode: multiply; display: block;"><g opacity="1" transform="matrix(1,0,0,1,0,0)" style="mix-blend-mode: multiply;"><path class="primary" fill="rgb(249,201,192)" fill-opacity="1" d=" M66.68299865722656,-10.95199966430664 C66.68299865722656,-10.95199966430664 -38.10300064086914,-10.95199966430664 -38.10300064086914,-10.95199966430664 C-50.25,-10.95199966430664 -62.060001373291016,-1.840999960899353 -66.68299865722656,10.95199966430664 C-61.167999267578125,0.6010000109672546 -50.7760009765625,-6.40500020980835 -40.125,-6.40500020980835 C-10.161999702453613,-6.40500020980835 19.799999237060547,-6.40500020980835 49.76300048828125,-6.40500020980835 C55.40299987792969,-7.921000003814697 61.042999267578125,-9.435999870300293 66.68299865722656,-10.95199966430664z"/></g></g><g mask="url(#__lottie_element_65_1)" style="mix-blend-mode: multiply; display: block;"><g transform="matrix(0.7845235466957092,-0.005080004688352346,0.005586496088653803,0.8627418875694275,182.39923095703125,263.340087890625)" opacity="0.5"><g opacity="1" transform="matrix(1,0,0,1,0,0)"><path class="secondary" fill="rgb(44,165,141)" fill-opacity="1" d=" M-13.571691513061523,-31.11590003967285 C-13.571691513061523,-31.11590003967285 8.536470413208008,-5.2757978439331055 8.536470413208008,-5.2757978439331055 C8.536470413208008,-5.2757978439331055 63.381103515625,49.30891418457031 63.381103515625,49.30891418457031 C63.381103515625,49.30891418457031 51.21189880371094,76.8836669921875 24.7470703125,64.99637603759766 C24.7470703125,64.99637603759766 -22.64246940612793,17.8441219329834 -22.64246940612793,17.8441219329834 C-22.64246940612793,17.8441219329834 -56.13800048828125,-28.545000076293945 -56.13800048828125,-28.545000076293945 C-56.13800048828125,-28.545000076293945 -67.81500244140625,-52.60499954223633 -57.7599983215332,-66.45899963378906"/></g></g></g><g mask="url(#__lottie_element_71_1)" style="mix-blend-mode: multiply; display: block;"><g transform="matrix(0.9999790191650391,-0.006475135684013367,0.006475135684013367,0.9999790191650391,190.85308837890625,262.2115173339844)" opacity="0.5"><g opacity="1" transform="matrix(1,0,0,1,0,0)"><path class="primary" fill="rgb(249,201,192)" fill-opacity="1" d=" M-13.571691513061523,-31.11590003967285 C-13.571691513061523,-31.11590003967285 8.536470413208008,-5.2757978439331055 8.536470413208008,-5.2757978439331055 C8.536470413208008,-5.2757978439331055 63.381103515625,49.30891418457031 63.381103515625,49.30891418457031 C63.381103515625,49.30891418457031 51.21189880371094,76.8836669921875 24.7470703125,64.99637603759766 C24.7470703125,64.99637603759766 -22.64246940612793,17.8441219329834 -22.64246940612793,17.8441219329834 C-22.64246940612793,17.8441219329834 -56.13800048828125,-28.545000076293945 -56.13800048828125,-28.545000076293945 C-56.13800048828125,-28.545000076293945 -67.81500244140625,-52.60499954223633 -57.7599983215332,-66.45899963378906"/></g></g></g><g transform="matrix(0.9999790191650391,-0.006475135684013367,0.006475135684013367,0.9999790191650391,191.69813537597656,252.24729919433594)" opacity="1" style="display: block;"><g opacity="1" transform="matrix(1,0,0,1,0,0)"><path class="secondary" fill="rgb(44,165,141)" fill-opacity="1" d=" M-13.571691513061523,-31.11590003967285 C-13.571691513061523,-31.11590003967285 8.536470413208008,-5.2757978439331055 8.536470413208008,-5.2757978439331055 C8.536470413208008,-5.2757978439331055 63.381103515625,49.30891418457031 63.381103515625,49.30891418457031 C63.381103515625,49.30891418457031 51.21189880371094,76.8836669921875 24.7470703125,64.99637603759766 C24.7470703125,64.99637603759766 -22.64246940612793,17.8441219329834 -22.64246940612793,17.8441219329834 C-22.64246940612793,17.8441219329834 -56.13800048828125,-28.545000076293945 -56.13800048828125,-28.545000076293945 C-56.13800048828125,-28.545000076293945 -67.81500244140625,-52.60499954223633 -57.7599983215332,-66.45899963378906"/></g></g><g transform="matrix(0.996423065662384,0.08450473099946976,-0.08450473099946976,0.996423065662384,132.765869140625,233.37322998046875)" opacity="0.5" style="mix-blend-mode: multiply; display: block;"><g opacity="1" transform="matrix(1,0,0,1,0,0)" style="mix-blend-mode: multiply;"><path class="secondary" fill="rgb(44,165,141)" fill-opacity="1" d=" M-24.450000762939453,64.88300323486328 C-24.450000762939453,64.88300323486328 4.130000114440918,-38.167999267578125 4.130000114440918,-38.167999267578125 C4.610000133514404,-39.62799835205078 5.170000076293945,-41.03799819946289 5.800000190734863,-42.39799880981445 C6.480000019073486,-43.88800048828125 7.260000228881836,-45.30799865722656 8.109999656677246,-46.667999267578125 C8.130000114440918,-46.698001861572266 8.15999984741211,-46.73699951171875 8.180000305175781,-46.766998291015625 C13.979999542236328,-56.00699996948242 23.389999389648438,-62.268001556396484 33.869998931884766,-64.24800109863281 C34.41699981689453,-64.35099792480469 34.97100067138672,-64.427001953125 35.52299880981445,-64.50700378417969 C31.216999053955078,-65.13099670410156 26.922000885009766,-65.02799987792969 22.797000885009766,-64.24800109863281 C12.317000389099121,-62.268001556396484 2.9070000648498535,-56.00699996948242 -2.8929998874664307,-46.766998291015625 C-2.9130001068115234,-46.73699951171875 -2.943000078201294,-46.698001861572266 -2.9630000591278076,-46.667999267578125 C-3.812999963760376,-45.30799865722656 -4.5929999351501465,-43.88800048828125 -5.2729997634887695,-42.39799880981445 C-5.9029998779296875,-41.03799819946289 -6.4629998207092285,-39.62799835205078 -6.942999839782715,-38.167999267578125 C-6.942999839782715,-38.167999267578125 -35.52299880981445,64.88300323486328 -35.52299880981445,64.88300323486328 C-35.52299880981445,64.88300323486328 30.41699981689453,64.91300201416016 30.41699981689453,64.91300201416016 C30.41699981689453,64.91300201416016 30.41900062561035,64.90799713134766 30.41900062561035,64.90799713134766 C30.41900062561035,64.90799713134766 -24.450000762939453,64.88300323486328 -24.450000762939453,64.88300323486328z"/></g></g></g></g></svg>