<?xml version="1.0" encoding="UTF-8"?> <svg xmlns="http://www.w3.org/2000/svg" id="Layer_1" version="1.1" viewBox="0 0 584.9 238.5"><defs><style> .st0 { fill: #404041; } .st1 { fill: #eeb741; } </style></defs><path class="st0" d="M499.1,92.8V7.5h2.1l39.9,46.4,39.5-46.4h2.3v85.3h-21.2v-33l-19.8,23.2h-1.5l-20-23.4v33.2h-21.3ZM439.6,67.3h16.8l-8.4-20.5-8.4,20.5ZM404.5,92.8L447.1,6.1h2l42.6,86.7h-24.9l-3.6-8.7h-30.1l-3.6,8.7h-24.9ZM379.5,50.8c0-23-15.1-21.9-30.2-21.9v43.7c15,0,30.2-.3,30.2-21.9ZM326.2,8.6c32.3,0,75.9-4.3,75.9,42.4s-44.9,41.8-75.9,41.8V8.6Z"></path><path class="st0" d="M530.1,188.6v-77.6h51.8v18.1h-31.8v16.9h27.6v16.3h-27.6v9.7h32.8v16.7h-52.8ZM467,188.6v-77.6h53.7v18.1h-31.8v16.3h26.2v17.6h-26.2v25.5h-21.9ZM412.3,165.8h16l-8-20.1-8,20.1ZM380.6,188.6l38.7-79.8h2.1l38.7,79.8h-22.6l-3.3-7.9h-27.6l-3.3,7.9h-22.6ZM319.7,186l6-18.1c9.8,4,31.1,10.3,31.1-1.4s-35.2-7.8-35.2-35.4c-1-31.7,46.7-20.7,51.2-17l-5.9,15c-5.9-2.3-24.8-7-24.8,2s35.4,9.6,35.6,32.8c0,30.9-34.4,30.6-58,21.9Z"></path><path class="st0" d="M565,238.1h17.9v-3.8h-13.7v-6.4h12v-3.8h-12v-6.2h13.5v-3.8h-17.7v23.9ZM521.1,238.5c4.2,0,7.6-1.7,10-3.7v-10h-10.2v3.6h6.1v4.5c-1.5,1.1-3.5,1.8-5.8,1.8-4.9,0-8.1-3.6-8.1-8.5h0c0-4.6,3.3-8.5,7.7-8.5s4.8,1,6.7,2.6l2.7-3.2c-2.5-2.1-5-3.2-9.2-3.2-7.2,0-12.3,5.7-12.3,12.3h0c0,7,4.9,12.3,12.4,12.3ZM462.1,228.6l4.1-9.6,4.1,9.6h-8.2ZM453.8,238.1h4.3l2.5-5.8h11.3l2.4,5.8h4.4l-10.5-24h-3.9l-10.5,24ZM406.9,226.1v-8h6.1c3.1,0,4.9,1.4,4.9,4h0c0,2.5-1.9,4.1-4.9,4.1h-6.1ZM402.7,238.1h4.2v-8.3h5.3l5.9,8.3h4.9l-6.4-9c3.3-1,5.7-3.3,5.7-7.2h0c0-2.1-.7-3.9-2-5.2-1.5-1.5-3.9-2.4-6.9-2.4h-10.6v23.9ZM356.7,234.7c-4.7,0-8.1-3.9-8.1-8.5h0c0-4.7,3.3-8.5,8.1-8.5s8.1,3.9,8.1,8.5h0c0,4.7-3.3,8.5-8.1,8.5ZM356.6,238.5c7.3,0,12.5-5.6,12.5-12.3h0c0-6.8-5.1-12.3-12.5-12.3s-12.5,5.6-12.5,12.3h0c0,6.8,5.1,12.3,12.5,12.3ZM301.8,238.1h4.2v-20h7.6v-3.9h-19.4v3.9h7.6v20ZM254.5,238.5c5,0,8.5-2.7,8.5-7.1h0c0-4-2.6-5.8-7.7-7.1-4.6-1.1-5.7-1.9-5.7-3.8h0c0-1.6,1.4-2.9,3.9-2.9s4.3.9,6.5,2.5l2.3-3.2c-2.4-1.9-5.2-3-8.7-3s-8.2,2.8-8.2,6.9h0c0,4.5,2.9,6,7.9,7.2,4.4,1,5.4,1.9,5.4,3.7h0c0,1.9-1.6,3.1-4.2,3.1s-5.3-1.1-7.5-3.1l-2.5,3c2.9,2.6,6.3,3.8,10,3.8ZM202.6,229.7h10.1v-4.1h-10.1v4.1ZM152.9,238.1h4.2v-9.7h12v-3.8h-12v-6.5h13.6v-3.8h-17.8v23.9ZM103.3,238.1h16.7v-3.8h-12.6v-20.1h-4.2v23.9ZM51.9,238.1h17.9v-3.8h-13.7v-6.4h12v-3.8h-12v-6.2h13.5v-3.8h-17.7v23.9ZM10,238.5c5,0,8.5-2.7,8.5-7.1h0c0-4-2.6-5.8-7.7-7.1-4.6-1.1-5.7-1.9-5.7-3.8h0c0-1.6,1.4-2.9,3.9-2.9s4.3.9,6.5,2.5l2.3-3.2c-2.4-1.9-5.2-3-8.7-3s-8.2,2.8-8.2,6.9h0c0,4.5,2.9,6,7.9,7.2,4.4,1,5.4,1.9,5.4,3.7h0c0,1.9-1.6,3.1-4.2,3.1s-5.3-1.1-7.5-3.1L0,234.6c2.9,2.6,6.3,3.8,10,3.8Z"></path><rect class="st1" y="2" width="308.8" height="44.1"></rect><rect class="st1" y="150.2" width="308.8" height="44.1"></rect><rect class="st1" y="76.1" width="308.8" height="44.1"></rect></svg> 